<svg width="20" height="18" fill="none" xmlns="http://www.w3.org/2000/svg"><g opacity=".3" fill="#11223E"><path fill-rule="evenodd" clip-rule="evenodd" d="M14.667 10.999C18.829 7.465 19.766 4.394 20 .045c-4.163-.244-7.18.408-10.979 4.349C7.252 4.177 5.431 4.72 4 6.052l2.367 2.772C5.223 9.912 5.12 11.787 6.16 13.01a2.82 2.82 0 002.238.979 2.686 2.686 0 001.769-.761L12.533 16c1.431-1.305 2.134-3.153 2.134-5.001zm1.17-7.04c.677.816.625 2.039-.156 2.773a1.963 1.963 0 01-1.17.489c-.573.027-1.093-.218-1.483-.653-.677-.815-.625-2.038.156-2.772a1.84 1.84 0 011.17-.49c.573-.026 1.093.218 1.483.653z"/><path d="M0 18l.137-.437c.027-.11.791-2.705 1.774-3.716.546-.546 1.202-.847 1.802-.847.383 0 .683.11.929.355.628.629.41 1.83-.492 2.732-1.065 1.066-3.604 1.75-3.713 1.804L0 18z"/></g></svg>